<svg width="20" height="28" viewBox="0 0 20 28" fill="none" xmlns="http://www.w3.org/2000/svg">
<path d="M10.1999 12.5874C10.0749 12.5749 9.9249 12.5749 9.7874 12.5874C8.35266 12.5387 6.99321 11.9335 5.99694 10.8999C5.00067 9.86628 4.44583 8.48549 4.4499 7.04993C4.4499 3.98743 6.9249 1.49993 9.9999 1.49993C10.7279 1.48679 11.4514 1.61718 12.129 1.88365C12.8066 2.15012 13.4251 2.54744 13.9492 3.05294C14.4733 3.55844 14.8927 4.16221 15.1834 4.82979C15.4741 5.49736 15.6305 6.21566 15.6437 6.94368C15.6568 7.67169 15.5264 8.39516 15.2599 9.07279C14.9935 9.75041 14.5961 10.3689 14.0906 10.893C13.5851 11.4171 12.9814 11.8364 12.3138 12.1272C11.6462 12.4179 10.9279 12.5743 10.1999 12.5874ZM3.9499 17.1999C0.924902 19.2249 0.924902 22.5249 3.9499 24.5374C7.3874 26.8374 13.0249 26.8374 16.4624 24.5374C19.4874 22.5124 19.4874 19.2124 16.4624 17.1999C13.0374 14.9124 7.3999 14.9124 3.9499 17.1999Z" stroke="black" stroke-width="1.5" stroke-linecap="round" stroke-linejoin="round"/>
</svg>
