<svg width="28" height="28" viewBox="0 0 28 28" fill="none" xmlns="http://www.w3.org/2000/svg">
<path d="M12.75 24C15.7337 24 18.5952 22.8147 20.705 20.705C22.8147 18.5952 24 15.7337 24 12.75C24 9.76631 22.8147 6.90483 20.705 4.79505C18.5952 2.68526 15.7337 1.5 12.75 1.5C9.76631 1.5 6.90483 2.68526 4.79505 4.79505C2.68526 6.90483 1.5 9.76631 1.5 12.75C1.5 15.7337 2.68526 18.5952 4.79505 20.705C6.90483 22.8147 9.76631 24 12.75 24ZM22.6625 24.8625C23.325 26.8625 24.8375 27.0625 26 25.3125C27.0625 23.7125 26.3625 22.4 24.4375 22.4C23.0125 22.3875 22.2125 23.5 22.6625 24.8625Z" stroke="black" stroke-width="1.77632" stroke-linecap="round" stroke-linejoin="round"/>
</svg>
