<svg width="22" height="18" viewBox="0 0 22 18" fill="none" xmlns="http://www.w3.org/2000/svg">
<g opacity="0.6">
<path d="M19.8017 3.86375H9.35752C8.29064 3.86375 7.42564 2.99875 7.42564 1.93187C7.42564 0.864997 8.29064 0 9.35752 0H19.8017C20.8686 0 21.7336 0.864997 21.7336 1.93187C21.7336 2.99875 20.8686 3.86375 19.8017 3.86375Z" fill="#393535"/>
<path d="M2.23373 3.86375H1.93187C0.864997 3.86375 0 2.99875 0 1.93187C0 0.864997 0.864997 0 1.93187 0H2.23373C3.30061 0 4.16561 0.864997 4.16561 1.93187C4.16561 2.99875 3.30061 3.86375 2.23373 3.86375Z" fill="#EC268F"/>
<path d="M19.8017 10.4708H1.93187C0.864997 10.4708 2.79397e-09 9.60577 2.79397e-09 8.53889C2.79397e-09 7.47201 0.864997 6.60701 1.93187 6.60701H19.8017C20.8686 6.60701 21.7336 7.47201 21.7336 8.53889C21.7336 9.60577 20.8686 10.4708 19.8017 10.4708Z" fill="#393535"/>
<path d="M19.8017 17.0778H1.93187C0.864997 17.0778 2.79397e-09 16.2128 2.79397e-09 15.1459C2.79397e-09 14.079 0.864997 13.214 1.93187 13.214H19.8017C20.8686 13.214 21.7336 14.079 21.7336 15.1459C21.7336 16.213 20.8686 17.0778 19.8017 17.0778Z" fill="#393535"/>
</g>
</svg>
