<svg width="31" height="26" viewBox="0 0 31 26" fill="none" xmlns="http://www.w3.org/2000/svg">
<path d="M15.006 16.4096C17.216 16.4096 19.0076 14.8629 19.0076 12.955C19.0076 11.047 17.216 9.50029 15.006 9.50029C12.796 9.50029 11.0044 11.047 11.0044 12.955C11.0044 14.8629 12.796 16.4096 15.006 16.4096Z" fill="black"/>
<path d="M11.2545 2.15916L8.96607 4.31832H5.00198C3.62643 4.31832 2.50098 5.28995 2.50098 6.47749V19.4325C2.50098 20.62 3.62643 21.5916 5.00198 21.5916H25.01C26.3856 21.5916 27.511 20.62 27.511 19.4325V6.47749C27.511 5.28995 26.3856 4.31832 25.01 4.31832H21.0459L18.7575 2.15916H11.2545ZM15.006 18.3529C11.5546 18.3529 8.75349 15.9346 8.75349 12.955C8.75349 9.97533 11.5546 7.55707 15.006 7.55707C18.4574 7.55707 21.2585 9.97533 21.2585 12.955C21.2585 15.9346 18.4574 18.3529 15.006 18.3529Z" fill="black"/>
</svg>
