<svg width="62" height="62" viewBox="0 0 62 62" fill="none" xmlns="http://www.w3.org/2000/svg">
<path d="M31.0002 8.00001C35.2168 8.00001 38.6668 11.45 38.6668 15.6667C38.6668 19.8833 35.2168 23.3333 31.0002 23.3333C26.7835 23.3333 23.3335 19.8833 23.3335 15.6667C23.3335 11.45 26.7835 8.00001 31.0002 8.00001ZM31.0002 46.3333C41.3502 46.3333 53.2335 51.2783 54.0002 54H8.00016C8.88183 51.24 20.6885 46.3333 31.0002 46.3333ZM31.0002 0.333344C22.5285 0.333344 15.6668 7.19501 15.6668 15.6667C15.6668 24.1383 22.5285 31 31.0002 31C39.4718 31 46.3335 24.1383 46.3335 15.6667C46.3335 7.19501 39.4718 0.333344 31.0002 0.333344ZM31.0002 38.6667C20.7652 38.6667 0.333496 43.8033 0.333496 54V61.6667H61.6668V54C61.6668 43.8033 41.2352 38.6667 31.0002 38.6667Z" fill="#EC268F"/>
</svg>
