<svg width="17" height="17" viewBox="0 0 17 17" fill="none" xmlns="http://www.w3.org/2000/svg">
<path d="M1.15397 0.0224609H14.891C15.2021 0.0224609 15.486 0.150838 15.6904 0.356504C15.8949 0.562169 16.0225 0.847743 16.0225 1.16083V14.8841C16.0225 15.1972 15.8949 15.4828 15.6904 15.6884C15.486 15.8941 15.2021 16.0225 14.891 16.0225H1.15397C0.842773 16.0225 0.558919 15.8941 0.354492 15.6884C0.150065 15.4828 0.0224609 15.1972 0.0224609 14.8841V1.16083C0.0224609 0.847743 0.150065 0.562169 0.354492 0.356504C0.558919 0.150838 0.842773 0.0224609 1.15397 0.0224609ZM0.936524 11.5895L5.82064 7.15002C6.00684 6.98103 6.2946 6.99544 6.46257 7.18277C6.46647 7.1867 6.46908 7.19063 6.47298 7.19456L6.47428 7.19325L10.5693 12.069L11.1969 8.19276C11.2373 7.94255 11.4717 7.77357 11.7204 7.81417C11.818 7.82989 11.9027 7.87574 11.9678 7.93993L15.1123 10.9764V1.16083C15.1123 1.10057 15.0876 1.04686 15.0485 1.00625C15.0094 0.966951 14.9548 0.942061 14.8949 0.942061H1.15397C1.09408 0.942061 1.04069 0.966951 1.00033 1.00625C0.961263 1.04555 0.936524 1.10057 0.936524 1.16083V11.5895ZM15.1084 12.2471L11.9548 9.20144L11.3102 13.1851C11.2959 13.2938 11.2425 13.3986 11.1527 13.4759C10.96 13.6396 10.6735 13.6147 10.5107 13.4222L6.07975 8.14691L0.936524 12.8235V14.8841C0.936524 14.9444 0.961263 14.9981 1.00033 15.0387C1.04069 15.0793 1.09408 15.1029 1.15397 15.1029H14.891C14.9508 15.1029 15.0042 15.078 15.0446 15.0387C15.0837 14.9994 15.1084 14.9444 15.1084 14.8841V12.2471ZM12.0798 2.62407C12.5329 2.62407 12.9417 2.80877 13.2386 3.10745C13.5355 3.40612 13.7191 3.81876 13.7191 4.27332C13.7191 4.72788 13.5355 5.14052 13.2386 5.4392C12.9417 5.73787 12.5316 5.92258 12.0798 5.92258C11.6266 5.92258 11.2178 5.73787 10.9209 5.4392C10.624 5.14052 10.4404 4.72788 10.4404 4.27332C10.4404 3.81876 10.624 3.40612 10.9209 3.10745C11.2178 2.80877 11.6266 2.62407 12.0798 2.62407ZM12.7282 3.62095C12.5628 3.45459 12.3337 3.3511 12.0798 3.3511C11.8271 3.3511 11.598 3.45459 11.4313 3.62095C11.266 3.78732 11.1631 4.01788 11.1631 4.27332C11.1631 4.52746 11.266 4.75801 11.4313 4.92569C11.5967 5.09205 11.8258 5.19554 12.0798 5.19554C12.3324 5.19554 12.5615 5.09205 12.7282 4.92569C12.8936 4.75932 12.9964 4.52877 12.9964 4.27332C12.9964 4.01919 12.8936 3.78863 12.7282 3.62095Z" fill="#F369B3"/>
</svg>
