<svg width="85" height="41" viewBox="0 0 85 41" fill="none" xmlns="http://www.w3.org/2000/svg">
<path d="M84.371 23.0459L74.7481 12.1987C74.2758 11.6659 73.5977 11.3611 72.8875 11.3611H64.0513V5.24047C64.0513 2.35097 62.0679 0 59.6303 0H30.0957C27.6581 0 25.6747 2.35097 25.6747 5.24047V33.8515C25.6747 35.5153 26.8506 36.8688 28.2946 36.8688H35.1673C35.6991 39.2301 37.8061 41 40.3212 41C42.8362 41 44.9423 39.2301 45.475 36.8688H71.1743C71.706 39.2301 73.8131 41 76.3281 41C78.8432 41 80.9502 39.2301 81.4819 36.8688H82.5104C83.8827 36.8688 85 35.7491 85 34.3739V24.7032C85 24.0937 84.7771 23.505 84.371 23.0459ZM81.9523 23.168H70.4735C70.2327 23.168 70.0362 22.9721 70.0362 22.7308V17.5821C70.0362 17.3408 70.2327 17.1439 70.4735 17.1439H76.6077L81.9523 23.168ZM40.3212 39.1071C38.4474 39.1071 36.9231 37.5795 36.9231 35.7018C36.9231 33.8241 38.4474 32.2955 40.3212 32.2955C42.1949 32.2955 43.7193 33.8231 43.7193 35.7018C43.7193 37.5795 42.1949 39.1071 40.3212 39.1071ZM62.1614 34.9759H45.5524C45.1973 32.3978 42.9902 30.4036 40.3212 30.4036C37.6522 30.4036 35.445 32.3978 35.0899 34.9759H28.2946C27.9489 34.9759 27.5636 34.515 27.5636 33.8515V5.24047C27.5636 3.3949 28.6998 1.89289 30.0957 1.89289H59.6303C61.0272 1.89289 62.1624 3.3949 62.1624 5.24047L62.1614 34.9759ZM76.3272 39.1071C74.4543 39.1071 72.9291 37.5795 72.9291 35.7018C72.9291 33.8241 74.4534 32.2955 76.3272 32.2955C78.201 32.2955 79.7262 33.8231 79.7262 35.7018C79.7262 37.5795 78.2019 39.1071 76.3272 39.1071ZM82.5104 34.9759H81.5594C81.2043 32.3978 78.9962 30.4036 76.3272 30.4036C73.6582 30.4036 71.451 32.3978 71.0959 34.9759H64.0503V13.254H72.8866C73.0584 13.254 73.2209 13.3278 73.3361 13.4566L74.9284 15.251H70.4735C69.1909 15.251 68.1473 16.2968 68.1473 17.5821V22.7308C68.1473 24.0151 69.19 25.0609 70.4735 25.0609H83.1111V34.3739C83.1111 34.7061 82.8419 34.9759 82.5104 34.9759Z" fill="#EC268F"/>
<path d="M20.0288 28.0167H8.13639C7.61506 28.0167 7.19194 27.5936 7.19194 27.0702C7.19194 26.5468 7.61506 26.1238 8.13639 26.1238H20.0288C20.5502 26.1238 20.9733 26.5468 20.9733 27.0702C20.9733 27.5936 20.5502 28.0167 20.0288 28.0167Z" fill="#EC268F"/>
<path d="M20.0288 21.4758H4.3605C3.83917 21.4758 3.41606 21.0518 3.41606 20.5293C3.41606 20.0069 3.83917 19.5829 4.3605 19.5829H20.0288C20.5502 19.5829 20.9733 20.0069 20.9733 20.5293C20.9733 21.0518 20.5502 21.4758 20.0288 21.4758Z" fill="#EC268F"/>
<path d="M20.0288 14.9358H0.944444C0.423111 14.9358 0 14.5118 0 13.9894C0 13.467 0.423111 13.043 0.944444 13.043H20.0288C20.5502 13.043 20.9733 13.467 20.9733 13.9894C20.9733 14.5118 20.5502 14.9358 20.0288 14.9358Z" fill="#EC268F"/>
<path d="M44.7733 26.5222L44.3133 26.2657C42.2374 25.1054 39.0008 22.3758 37.6541 20.6476C34.7499 16.9224 34.1785 12.4808 36.295 10.0844C37.3197 8.92403 38.7562 8.25489 40.3419 8.2C41.8965 8.14321 43.4426 8.69404 44.7742 9.7569C46.1059 8.69404 47.6472 8.13186 49.2046 8.2C50.7903 8.25489 52.2268 8.92403 53.2525 10.0834C55.3681 12.4798 54.7967 16.9224 51.8934 20.6467C50.5457 22.3749 47.3091 25.1045 45.2342 26.2648L44.7733 26.5222ZM40.5497 10.0891C40.5016 10.0891 40.4543 10.09 40.4071 10.091C39.3446 10.1279 38.3869 10.5708 37.7098 11.3375C36.2213 13.0231 36.8371 16.524 39.1434 19.4807C40.2522 20.9041 42.9014 23.1737 44.7742 24.3388C46.6461 23.1737 49.2953 20.9041 50.405 19.4807C52.7094 16.523 53.3271 13.0221 51.8387 11.3375C51.1606 10.5699 50.2029 10.1279 49.1404 10.091C47.8673 10.0569 46.5318 10.6153 45.4372 11.6933L44.7752 12.3454L44.1131 11.6933C43.0572 10.6551 41.7973 10.0891 40.5497 10.0891Z" fill="#EC268F"/>
</svg>
