<svg width="89" height="50" viewBox="0 0 89 65" fill="none" xmlns="http://www.w3.org/2000/svg">
<path d="M47.0575 47.2192H10.6675C10.1282 47.2192 9.69055 47.6559 9.69055 48.1962C9.69055 48.7364 10.1282 49.1731 10.6675 49.1731H47.0575C47.5977 49.1731 48.0344 48.7364 48.0344 48.1962C48.0344 47.6559 47.5977 47.2192 47.0575 47.2192Z" fill="#EC268F"/>
<path d="M75.3988 47.2192H67.3509C66.8107 47.2192 66.374 47.6559 66.374 48.1962C66.374 48.7364 66.8107 49.1731 67.3509 49.1731H75.3988C75.939 49.1731 76.3757 48.7364 76.3757 48.1962C76.3757 47.6559 75.938 47.2192 75.3988 47.2192Z" fill="#EC268F"/>
<path d="M88.4113 8.61734C88.4113 7.32489 87.491 6.21902 86.223 5.98945C81.3912 5.11022 77.1787 3.29609 73.7038 0.595904C72.7465 -0.147528 71.4081 -0.147528 70.4507 0.595904C66.9749 3.29512 62.7634 5.11022 57.9316 5.98945C56.7505 6.20437 55.88 7.18128 55.7657 8.35944H8.24278C3.9678 8.35944 0.489014 11.8373 0.489014 16.1122V22.1886V34.0259V57.1065C0.489014 61.3824 3.9678 64.8612 8.24278 64.8612H77.8235C82.0985 64.8612 85.5772 61.3824 85.5772 57.1065V34.0259V32.9308C87.3953 30.0968 88.4113 26.8817 88.4113 23.5016V8.61734ZM2.44284 23.1655H55.7423V23.5016C55.7423 23.9695 55.7667 24.4346 55.8048 24.8976C55.8195 25.0744 55.8439 25.2493 55.8644 25.4242C55.8966 25.6997 55.9308 25.9742 55.9758 26.2477C56.0129 26.4763 56.0578 26.703 56.1047 26.9296C56.1467 27.1289 56.1917 27.3262 56.2405 27.5236C56.3079 27.8 56.3792 28.0745 56.4603 28.3471C56.4906 28.4467 56.5238 28.5444 56.5561 28.6431C57.0455 30.1876 57.7499 31.6637 58.6515 33.048H2.44284V23.1655ZM8.24278 10.3133H55.7423V21.2117H2.44284V16.1122C2.44284 12.9148 5.04436 10.3133 8.24278 10.3133ZM77.8235 62.9074H8.24278C5.04436 62.9074 2.44284 60.3059 2.44284 57.1065V35.0028H60.1032C61.7112 36.9039 63.7129 38.5773 66.0575 39.9245C67.5336 40.7725 69.1426 41.4934 70.8649 42.0659C71.6015 42.3111 72.4084 42.316 73.1529 42.0981C73.1968 42.0854 73.2437 42.0796 73.2867 42.0659C73.8191 41.8891 74.3418 41.6947 74.8556 41.4876C75.22 41.341 75.5707 41.1798 75.9234 41.0196C76.0494 40.962 76.1793 40.9092 76.3044 40.8496C79.2058 39.4761 81.6774 37.6434 83.6205 35.4864V57.1065C83.6234 60.3059 81.0219 62.9074 77.8235 62.9074ZM86.4575 23.5016C86.4575 26.5437 85.5225 29.4422 83.851 31.9998C83.8305 32.0242 83.8042 32.0418 83.7866 32.0691C81.9617 34.8152 79.3016 37.1198 76.1119 38.7649C76.0826 38.7805 76.0533 38.7962 76.024 38.8118C75.557 39.0502 75.0754 39.27 74.586 39.479C74.5069 39.5122 74.4316 39.5503 74.3525 39.5826C73.8045 39.8102 73.2457 40.0222 72.6732 40.2117C72.2873 40.3397 71.8653 40.3397 71.4814 40.2117C68.3406 39.1684 65.6169 37.5946 63.4394 35.6456C62.7087 34.9921 62.0405 34.2955 61.4377 33.5628C61.4094 33.5111 61.385 33.4573 61.3469 33.4114C59.5581 31.1997 58.4005 28.7222 57.9325 26.1354C57.9159 26.0396 57.9081 25.9419 57.8925 25.8462C57.8388 25.5111 57.787 25.1751 57.7567 24.8361C57.7176 24.3945 57.6951 23.949 57.6951 23.5006V22.1877V9.33635V8.61832C57.6951 8.27054 57.9403 7.97356 58.2793 7.91201C63.4247 6.97613 67.9215 5.03402 71.6484 2.14041C71.7744 2.04174 71.9258 1.99387 72.0763 1.99387C72.2267 1.99387 72.3791 2.04271 72.5042 2.14041C76.2301 5.03402 80.7279 6.97613 85.8733 7.91299C86.2122 7.97356 86.4575 8.27054 86.4575 8.61734V23.5016Z" fill="#EC268F"/>
<path d="M77.7161 15.1276L69.9418 24.9915L66.4376 20.5465C66.1045 20.1225 65.49 20.0502 65.066 20.3843C64.642 20.7184 64.5697 21.3319 64.9038 21.7559L69.1749 27.1749C69.3595 27.4093 69.6428 27.5471 69.9418 27.5471C70.2407 27.5471 70.524 27.4093 70.7086 27.1749L79.2498 16.337C79.5839 15.913 79.5116 15.2985 79.0876 14.9644C78.6637 14.6303 78.0511 14.7046 77.7161 15.1276Z" fill="#EC268F"/>
</svg>
