<svg width="75" height="50" viewBox="0 0 69 65" fill="none" xmlns="http://www.w3.org/2000/svg">
<path d="M19.6711 32.9586H13.0624C12.7757 32.9586 12.5127 32.7976 12.3809 32.5412C12.249 32.2848 12.2712 31.9767 12.4376 31.7418L18.4659 23.229C18.9811 22.5012 19.0547 21.584 18.6614 20.7754C18.2842 19.9991 17.5558 19.5132 16.7118 19.4754L16.5845 19.4724C15.065 19.4724 13.8291 20.7138 13.8291 22.2401C13.8291 22.6652 13.4856 23.0103 13.0624 23.0103C12.6392 23.0103 12.2958 22.6652 12.2958 22.2401C12.2958 19.8651 14.2201 17.9321 16.5845 17.9321C16.6512 17.9321 16.7171 17.9337 16.7831 17.9367C18.1937 18.0007 19.4127 18.8101 20.0391 20.1008C20.6723 21.4046 20.5481 22.9456 19.7148 24.1223L14.5482 31.4184H19.6711C20.0943 31.4184 20.4377 31.7634 20.4377 32.1885C20.4377 32.6136 20.0943 32.9586 19.6711 32.9586Z" fill="#EC268F"/>
<path d="M29.2644 32.9586C28.8412 32.9586 28.4977 32.6136 28.4977 32.1885V30.4519H21.4229C21.1354 30.4519 20.8724 30.2902 20.7406 30.0337C20.6087 29.7773 20.6317 29.4677 20.7996 29.2328L28.6411 18.2533C28.835 17.9814 29.1808 17.8674 29.499 17.9691C29.8163 18.0715 30.031 18.368 30.031 18.7022V28.9117H31.7744C32.1976 28.9117 32.5411 29.2567 32.5411 29.6818C32.5411 30.1069 32.1976 30.4519 31.7744 30.4519H30.031V32.1877C30.031 32.6136 29.6875 32.9586 29.2644 32.9586ZM22.9164 28.9117H28.4977V21.0965L22.9164 28.9117Z" fill="#EC268F"/>
<path d="M43.7696 47.0686C43.6378 47.0686 43.5044 47.0348 43.3825 46.9624C43.0168 46.7475 42.8949 46.2754 43.1095 45.9089L50.3078 33.5824H43.7712C43.3472 33.5824 43.0045 33.2374 43.0045 32.8123C43.0045 32.3872 43.3472 32.0422 43.7712 32.0422H51.6464C51.9208 32.0422 52.1746 32.19 52.3118 32.4295C52.4483 32.669 52.4467 32.964 52.3072 33.202L44.4313 46.6882C44.2894 46.9323 44.0326 47.0686 43.7696 47.0686Z" fill="#EC268F"/>
<path d="M29.2835 47.0686C29.1555 47.0686 29.0267 47.0363 28.9071 46.9693C28.5383 46.7598 28.4088 46.2901 28.6165 45.9196L44.1361 18.3241C44.3446 17.9537 44.8115 17.8228 45.1811 18.0322C45.5491 18.2409 45.6794 18.7115 45.4716 19.0811L29.952 46.6774C29.811 46.9277 29.5511 47.0686 29.2835 47.0686Z" fill="#EC268F"/>
<path d="M32.3548 65C14.5145 65 0 50.421 0 32.5004C0 14.5798 14.5145 0 32.3548 0C50.1951 0 64.7088 14.5798 64.7088 32.5004C64.7088 32.9255 64.3661 33.2705 63.9421 33.2705C63.5182 33.2705 63.1754 32.9255 63.1754 32.5004C63.1754 15.4292 49.3494 1.54023 32.354 1.54023C15.3586 1.54023 1.53333 15.4292 1.53333 32.5004C1.53333 49.5715 15.3594 63.4598 32.3548 63.4598C43.2659 63.4598 53.4695 57.5746 58.9818 48.1021C59.1949 47.7348 59.6641 47.6116 60.0306 47.8264C60.3963 48.0405 60.519 48.5134 60.3051 48.88C54.5183 58.8229 43.8087 65 32.3548 65Z" fill="#EC268F"/>
<path d="M63.9421 33.2705C63.7382 33.2705 63.5435 33.1896 63.4001 33.0449L59.1083 28.7345C58.8085 28.4334 58.8085 27.9467 59.1083 27.6456C59.4081 27.3445 59.8926 27.3445 60.1924 27.6456L63.9421 31.4114L67.6911 27.6456C67.9909 27.3445 68.4754 27.3445 68.7752 27.6456C69.0749 27.9467 69.0749 28.4334 68.7752 28.7345L64.4842 33.0449C64.3408 33.1896 64.146 33.2705 63.9421 33.2705Z" fill="#EC268F"/>
</svg>
